<?xml version="1.0" encoding="UTF-8"?>
<?xml-stylesheet href="https://cdnjs.cloudflare.com/ajax/libs/font-awesome/6.5.2/css/all.min.css" type="text/css"?>
<svg aria-roledescription="er" role="graphics-document document" style="overflow: hidden; max-width: 100%;" xmlns="http://www.w3.org/2000/svg" width="100%" id="graph-div" height="100%" xmlns:xlink="http://www.w3.org/1999/xlink" xmlns:ev="http://www.w3.org/2001/xml-events"><defs><marker orient="auto" markerHeight="240" markerWidth="190" refY="7" refX="0" id="MD_PARENT_START"><path d="M 18,7 L9,13 L1,7 L9,1 Z"></path></marker><style id="svg-pan-zoom-controls-styles" type="text/css">.svg-pan-zoom-control { cursor: pointer; fill: black; fill-opacity: 0.333; } .svg-pan-zoom-control:hover { fill-opacity: 0.8; } .svg-pan-zoom-control-background { fill: white; fill-opacity: 0.5; } .svg-pan-zoom-control-background { fill-opacity: 0.8; }</style></defs><defs><marker orient="auto" markerHeight="28" markerWidth="20" refY="7" refX="19" id="MD_PARENT_END"><path d="M 18,7 L9,13 L1,7 L9,1 Z"></path></marker></defs><defs><marker orient="auto" markerHeight="18" markerWidth="18" refY="9" refX="0" id="ONLY_ONE_START"><path d="M9,0 L9,18 M15,0 L15,18" fill="none" stroke="gray"></path></marker></defs><defs><marker orient="auto" markerHeight="18" markerWidth="18" refY="9" refX="18" id="ONLY_ONE_END"><path d="M3,0 L3,18 M9,0 L9,18" fill="none" stroke="gray"></path></marker></defs><defs><marker orient="auto" markerHeight="18" markerWidth="30" refY="9" refX="0" id="ZERO_OR_ONE_START"><circle r="6" cy="9" cx="21" fill="white" stroke="gray"></circle><path d="M9,0 L9,18" fill="none" stroke="gray"></path></marker></defs><defs><marker orient="auto" markerHeight="18" markerWidth="30" refY="9" refX="30" id="ZERO_OR_ONE_END"><circle r="6" cy="9" cx="9" fill="white" stroke="gray"></circle><path d="M21,0 L21,18" fill="none" stroke="gray"></path></marker></defs><defs><marker orient="auto" markerHeight="36" markerWidth="45" refY="18" refX="18" id="ONE_OR_MORE_START"><path d="M0,18 Q 18,0 36,18 Q 18,36 0,18 M42,9 L42,27" fill="none" stroke="gray"></path></marker></defs><defs><marker orient="auto" markerHeight="36" markerWidth="45" refY="18" refX="27" id="ONE_OR_MORE_END"><path d="M3,9 L3,27 M9,18 Q27,0 45,18 Q27,36 9,18" fill="none" stroke="gray"></path></marker></defs><defs><marker orient="auto" markerHeight="36" markerWidth="57" refY="18" refX="18" id="ZERO_OR_MORE_START"><circle r="6" cy="18" cx="48" fill="white" stroke="gray"></circle><path d="M0,18 Q18,0 36,18 Q18,36 0,18" fill="none" stroke="gray"></path></marker></defs><defs><marker orient="auto" markerHeight="36" markerWidth="57" refY="18" refX="39" id="ZERO_OR_MORE_END"><circle r="6" cy="18" cx="9" fill="white" stroke="gray"></circle><path d="M21,18 Q39,0 57,18 Q39,36 21,18" fill="none" stroke="gray"></path></marker></defs><g id="viewport-20240722144452724" class="svg-pan-zoom_viewport" transform="matrix(0.42347651720046997,0,0,0.42347651720046997,89.2905044555664,40.028526306152344)" style="transform: matrix(0.423477, 0, 0, 0.423477, 89.2905, 40.0285);"><style>#graph-div{font-family:"trebuchet ms",verdana,arial,sans-serif;font-size:16px;fill:#ccc;}#graph-div .error-icon{fill:#a44141;}#graph-div .error-text{fill:#ddd;stroke:#ddd;}#graph-div .edge-thickness-normal{stroke-width:2px;}#graph-div .edge-thickness-thick{stroke-width:3.5px;}#graph-div .edge-pattern-solid{stroke-dasharray:0;}#graph-div .edge-pattern-dashed{stroke-dasharray:3;}#graph-div .edge-pattern-dotted{stroke-dasharray:2;}#graph-div .marker{fill:lightgrey;stroke:lightgrey;}#graph-div .marker.cross{stroke:lightgrey;}#graph-div svg{font-family:"trebuchet ms",verdana,arial,sans-serif;font-size:16px;}#graph-div .entityBox{fill:#1f2020;stroke:#81B1DB;}#graph-div .attributeBoxOdd{fill:hsl(0, 0%, 32%);stroke:#81B1DB;}#graph-div .attributeBoxEven{fill:hsl(0, 0%, 22%);stroke:#81B1DB;}#graph-div .relationshipLabelBox{fill:hsl(20, 1.5873015873%, 12.3529411765%);opacity:0.7;background-color:hsl(20, 1.5873015873%, 12.3529411765%);}#graph-div .relationshipLabelBox rect{opacity:0.5;}#graph-div .relationshipLine{stroke:lightgrey;}#graph-div .entityTitleText{text-anchor:middle;font-size:18px;fill:#ccc;}#graph-div #MD_PARENT_START{fill:#f5f5f5!important;stroke:lightgrey!important;stroke-width:1;}#graph-div #MD_PARENT_END{fill:#f5f5f5!important;stroke:lightgrey!important;stroke-width:1;}#graph-div :root{--mermaid-font-family:"trebuchet ms",verdana,arial,sans-serif;}</style><g></g><path marker-start="url(#ONLY_ONE_START)" marker-end="url(#ZERO_OR_MORE_END)" style="stroke: gray; fill: none;" d="M410.5,167.585L353.75,191.988C297,216.39,183.5,265.195,126.75,306.514C70,347.833,70,381.667,70,398.583L70,415.5" class="er relationshipLine"></path><path marker-start="url(#ONLY_ONE_START)" marker-end="url(#ZERO_OR_MORE_END)" style="stroke: gray; fill: none;" d="M529.5,148.283L791.042,175.903C1052.583,203.522,1575.667,258.761,1837.208,303.297C2098.75,347.833,2098.75,381.667,2098.75,398.583L2098.75,415.5" class="er relationshipLine"></path><path marker-start="url(#ONLY_ONE_START)" marker-end="url(#ZERO_OR_MORE_END)" style="stroke: gray; fill: none;" d="M470,264L470,272.333C470,280.667,470,297.333,470,322.583C470,347.833,470,381.667,470,398.583L470,415.5" class="er relationshipLine"></path><path marker-start="url(#ONLY_ONE_START)" marker-end="url(#ZERO_OR_MORE_END)" style="stroke: gray; fill: none;" d="M529.5,191.559L554,211.966C578.5,232.373,627.5,273.186,652,310.51C676.5,347.833,676.5,381.667,676.5,398.583L676.5,415.5" class="er relationshipLine"></path><path marker-start="url(#ONLY_ONE_START)" marker-end="url(#ZERO_OR_MORE_END)" style="stroke: gray; fill: none;" d="M410.5,193.17L387.083,213.308C363.667,233.447,316.833,273.723,293.417,310.778C270,347.833,270,381.667,270,398.583L270,415.5" class="er relationshipLine"></path><path marker-start="url(#ONLY_ONE_START)" marker-end="url(#ZERO_OR_MORE_END)" style="stroke: gray; fill: none;" d="M270,490.5L270,507.417C270,524.333,270,558.167,270,592C270,625.833,270,659.667,270,676.583L270,693.5" class="er relationshipLine"></path><path marker-start="url(#ONLY_ONE_START)" marker-end="url(#ZERO_OR_MORE_END)" style="stroke: gray; fill: none;" d="M833,480.176L791.167,498.814C749.333,517.451,665.667,554.725,580.667,592.594C495.667,630.463,409.333,668.925,366.167,688.157L323,707.388" class="er relationshipLine"></path><path marker-start="url(#ONLY_ONE_START)" marker-end="url(#ZERO_OR_MORE_END)" style="stroke: gray; fill: none;" d="M894,487L894,504.5C894,522,894,557,894,591.417C894,625.833,894,659.667,894,676.583L894,693.5" class="er relationshipLine"></path><path marker-start="url(#ONLY_ONE_START)" marker-end="url(#ZERO_OR_MORE_END)" style="stroke: gray; fill: none;" d="M930.691,487L949.576,504.5C968.46,522,1006.23,557,1031.2,591.417C1056.17,625.833,1068.341,659.667,1074.426,676.583L1080.511,693.5" class="er relationshipLine"></path><path marker-start="url(#ONLY_ONE_START)" marker-end="url(#ZERO_OR_MORE_END)" style="stroke: gray; fill: none;" d="M1381.75,484.617L1342.125,502.514C1302.5,520.411,1223.25,556.206,1177.54,591.019C1131.83,625.833,1119.659,659.667,1113.574,676.583L1107.489,693.5" class="er relationshipLine"></path><path marker-start="url(#ONLY_ONE_START)" marker-end="url(#ZERO_OR_MORE_END)" style="stroke: gray; fill: none;" d="M1381.75,499.835L1358.792,515.196C1335.833,530.557,1289.917,561.278,1273.043,593.556C1256.17,625.833,1268.341,659.667,1274.426,676.583L1280.511,693.5" class="er relationshipLine"></path><path marker-start="url(#ONLY_ONE_START)" marker-end="url(#ZERO_OR_MORE_END)" style="stroke: gray; fill: none;" d="M1667.75,477.912L1615.083,496.926C1562.417,515.941,1457.083,553.971,1397.388,589.902C1337.693,625.833,1323.637,659.667,1316.608,676.583L1309.58,693.5" class="er relationshipLine"></path><path marker-start="url(#ONLY_ONE_START)" marker-end="url(#ZERO_OR_MORE_END)" style="stroke: gray; fill: none;" d="M1451.75,542L1451.75,550.333C1451.75,558.667,1451.75,575.333,1455.212,592C1458.674,608.667,1465.599,625.333,1469.061,633.667L1472.523,642" class="er relationshipLine"></path><path marker-start="url(#ONLY_ONE_START)" marker-end="url(#ZERO_OR_MORE_END)" style="stroke: gray; fill: none;" d="M1701.867,498L1689.722,513.667C1677.578,529.333,1653.289,560.667,1632.144,586.802C1611,612.937,1593,633.874,1584,644.343L1575,654.812" class="er relationshipLine"></path><path marker-start="url(#ONLY_ONE_START)" marker-end="url(#ZERO_OR_MORE_END)" style="stroke: gray; fill: none;" d="M1521.75,488.095L1556.292,505.412C1590.833,522.73,1659.917,557.365,1701.487,591.599C1743.057,625.833,1757.113,659.667,1764.142,676.583L1771.17,693.5" class="er relationshipLine"></path><path marker-start="url(#ONLY_ONE_START)" marker-end="url(#ZERO_OR_MORE_END)" style="stroke: gray; fill: none;" d="M1770.662,498L1782.468,513.667C1794.275,529.333,1817.887,560.667,1823.03,593.25C1828.174,625.833,1814.847,659.667,1808.184,676.583L1801.521,693.5" class="er relationshipLine"></path><path marker-start="url(#ONLY_ONE_START)" marker-end="url(#ZERO_OR_MORE_END)" style="stroke: gray; fill: none;" d="M1521.75,470.87L1600.833,491.058C1679.917,511.246,1838.083,551.623,1917.167,588.728C1996.25,625.833,1996.25,659.667,1996.25,676.583L1996.25,693.5" class="er relationshipLine"></path><path marker-start="url(#ONLY_ONE_START)" marker-end="url(#ONLY_ONE_END)" style="stroke: gray; fill: none;" d="M1996.25,768.5L1996.25,785.417C1996.25,802.333,1996.25,836.167,1996.25,861.417C1996.25,886.667,1996.25,903.333,1996.25,911.667L1996.25,920" class="er relationshipLine"></path><path marker-start="url(#ONLY_ONE_START)" marker-end="url(#ZERO_OR_MORE_END)" style="stroke: gray; fill: none;" d="M1996.25,995L1996.25,1003.333C1996.25,1011.667,1996.25,1028.333,1996.25,1045C1996.25,1061.667,1996.25,1078.333,1996.25,1086.667L1996.25,1095" class="er relationshipLine"></path><path marker-start="url(#ONLY_ONE_START)" marker-end="url(#ZERO_OR_MORE_END)" style="stroke: gray; fill: none;" d="M2098.75,490.5L2098.75,507.417C2098.75,524.333,2098.75,558.167,2117.553,592C2136.356,625.833,2173.962,659.667,2192.765,676.583L2211.568,693.5" class="er relationshipLine"></path><path marker-start="url(#ONLY_ONE_START)" marker-end="url(#ZERO_OR_MORE_END)" style="stroke: gray; fill: none;" d="M1805.75,473.659L1871.625,493.383C1937.5,513.106,2069.25,552.553,2141.484,589.193C2213.718,625.833,2226.436,659.667,2232.795,676.583L2239.154,693.5" class="er relationshipLine"></path><path marker-start="url(#ONLY_ONE_START)" marker-end="url(#ZERO_OR_MORE_END)" style="stroke: gray; fill: none;" d="M2303.25,498L2303.25,513.667C2303.25,529.333,2303.25,560.667,2297.165,593.25C2291.08,625.833,2278.909,659.667,2272.824,676.583L2266.739,693.5" class="er relationshipLine"></path><g transform="translate(410.5,20 )" id="entity-Employee-c527a5e7-c82f-5591-9a78-fbfc19a3c96b"><rect height="244" width="119" y="0" x="0" class="er entityBox"></rect><text transform="translate(59.5,12)" style="dominant-baseline: middle; text-anchor: middle; font-size: 12px;" y="0" x="0" id="text-entity-Employee-c527a5e7-c82f-5591-9a78-fbfc19a3c96b" class="er entityLabel">Employee</text><rect height="22" width="63" y="24" x="0" class="er attributeBoxOdd"></rect><text transform="translate(5,35)" style="dominant-baseline: middle; font-size: 10.2px;" y="0" x="0" id="text-entity-Employee-c527a5e7-c82f-5591-9a78-fbfc19a3c96b-attr-1-type" class="er entityLabel">NUMBER</text><rect height="22" width="56" y="24" x="63" class="er attributeBoxOdd"></rect><text transform="translate(68,35)" style="dominant-baseline: middle; font-size: 10.2px;" y="0" x="0" id="text-entity-Employee-c527a5e7-c82f-5591-9a78-fbfc19a3c96b-attr-1-name" class="er entityLabel">SSN</text><rect height="22" width="63" y="46" x="0" class="er attributeBoxEven"></rect><text transform="translate(5,57)" style="dominant-baseline: middle; font-size: 10.2px;" y="0" x="0" id="text-entity-Employee-c527a5e7-c82f-5591-9a78-fbfc19a3c96b-attr-2-type" class="er entityLabel">NUMBER</text><rect height="22" width="56" y="46" x="63" class="er attributeBoxEven"></rect><text transform="translate(68,57)" style="dominant-baseline: middle; font-size: 10.2px;" y="0" x="0" id="text-entity-Employee-c527a5e7-c82f-5591-9a78-fbfc19a3c96b-attr-2-name" class="er entityLabel">Emp_ID</text><rect height="22" width="63" y="68" x="0" class="er attributeBoxOdd"></rect><text transform="translate(5,79)" style="dominant-baseline: middle; font-size: 10.2px;" y="0" x="0" id="text-entity-Employee-c527a5e7-c82f-5591-9a78-fbfc19a3c96b-attr-3-type" class="er entityLabel">VARCHAR2</text><rect height="22" width="56" y="68" x="63" class="er attributeBoxOdd"></rect><text transform="translate(68,79)" style="dominant-baseline: middle; font-size: 10.2px;" y="0" x="0" id="text-entity-Employee-c527a5e7-c82f-5591-9a78-fbfc19a3c96b-attr-3-name" class="er entityLabel">Fname</text><rect height="22" width="63" y="90" x="0" class="er attributeBoxEven"></rect><text transform="translate(5,101)" style="dominant-baseline: middle; font-size: 10.2px;" y="0" x="0" id="text-entity-Employee-c527a5e7-c82f-5591-9a78-fbfc19a3c96b-attr-4-type" class="er entityLabel">VARCHAR2</text><rect height="22" width="56" y="90" x="63" class="er attributeBoxEven"></rect><text transform="translate(68,101)" style="dominant-baseline: middle; font-size: 10.2px;" y="0" x="0" id="text-entity-Employee-c527a5e7-c82f-5591-9a78-fbfc19a3c96b-attr-4-name" class="er entityLabel">Minit</text><rect height="22" width="63" y="112" x="0" class="er attributeBoxOdd"></rect><text transform="translate(5,123)" style="dominant-baseline: middle; font-size: 10.2px;" y="0" x="0" id="text-entity-Employee-c527a5e7-c82f-5591-9a78-fbfc19a3c96b-attr-5-type" class="er entityLabel">VARCHAR2</text><rect height="22" width="56" y="112" x="63" class="er attributeBoxOdd"></rect><text transform="translate(68,123)" style="dominant-baseline: middle; font-size: 10.2px;" y="0" x="0" id="text-entity-Employee-c527a5e7-c82f-5591-9a78-fbfc19a3c96b-attr-5-name" class="er entityLabel">Lname</text><rect height="22" width="63" y="134" x="0" class="er attributeBoxEven"></rect><text transform="translate(5,145)" style="dominant-baseline: middle; font-size: 10.2px;" y="0" x="0" id="text-entity-Employee-c527a5e7-c82f-5591-9a78-fbfc19a3c96b-attr-6-type" class="er entityLabel">CHAR</text><rect height="22" width="56" y="134" x="63" class="er attributeBoxEven"></rect><text transform="translate(68,145)" style="dominant-baseline: middle; font-size: 10.2px;" y="0" x="0" id="text-entity-Employee-c527a5e7-c82f-5591-9a78-fbfc19a3c96b-attr-6-name" class="er entityLabel">Sex</text><rect height="22" width="63" y="156" x="0" class="er attributeBoxOdd"></rect><text transform="translate(5,167)" style="dominant-baseline: middle; font-size: 10.2px;" y="0" x="0" id="text-entity-Employee-c527a5e7-c82f-5591-9a78-fbfc19a3c96b-attr-7-type" class="er entityLabel">DECIMAL</text><rect height="22" width="56" y="156" x="63" class="er attributeBoxOdd"></rect><text transform="translate(68,167)" style="dominant-baseline: middle; font-size: 10.2px;" y="0" x="0" id="text-entity-Employee-c527a5e7-c82f-5591-9a78-fbfc19a3c96b-attr-7-name" class="er entityLabel">Salary</text><rect height="22" width="63" y="178" x="0" class="er attributeBoxEven"></rect><text transform="translate(5,189)" style="dominant-baseline: middle; font-size: 10.2px;" y="0" x="0" id="text-entity-Employee-c527a5e7-c82f-5591-9a78-fbfc19a3c96b-attr-8-type" class="er entityLabel">VARCHAR2</text><rect height="22" width="56" y="178" x="63" class="er attributeBoxEven"></rect><text transform="translate(68,189)" style="dominant-baseline: middle; font-size: 10.2px;" y="0" x="0" id="text-entity-Employee-c527a5e7-c82f-5591-9a78-fbfc19a3c96b-attr-8-name" class="er entityLabel">Email</text><rect height="22" width="63" y="200" x="0" class="er attributeBoxOdd"></rect><text transform="translate(5,211)" style="dominant-baseline: middle; font-size: 10.2px;" y="0" x="0" id="text-entity-Employee-c527a5e7-c82f-5591-9a78-fbfc19a3c96b-attr-9-type" class="er entityLabel">DATE</text><rect height="22" width="56" y="200" x="63" class="er attributeBoxOdd"></rect><text transform="translate(68,211)" style="dominant-baseline: middle; font-size: 10.2px;" y="0" x="0" id="text-entity-Employee-c527a5e7-c82f-5591-9a78-fbfc19a3c96b-attr-9-name" class="er entityLabel">Bdata</text><rect height="22" width="63" y="222" x="0" class="er attributeBoxEven"></rect><text transform="translate(5,233)" style="dominant-baseline: middle; font-size: 10.2px;" y="0" x="0" id="text-entity-Employee-c527a5e7-c82f-5591-9a78-fbfc19a3c96b-attr-10-type" class="er entityLabel">NUMBER</text><rect height="22" width="56" y="222" x="63" class="er attributeBoxEven"></rect><text transform="translate(68,233)" style="dominant-baseline: middle; font-size: 10.2px;" y="0" x="0" id="text-entity-Employee-c527a5e7-c82f-5591-9a78-fbfc19a3c96b-attr-10-name" class="er entityLabel">Super_ID</text></g><g transform="translate(20,415.5 )" id="entity-Empphone-d1107e28-2b8d-5936-bf76-a02360b07f64"><rect height="75" width="100" y="0" x="0" class="er entityBox"></rect><text transform="translate(50,37.5)" style="dominant-baseline: middle; text-anchor: middle; font-size: 12px;" y="0" x="0" id="text-entity-Empphone-d1107e28-2b8d-5936-bf76-a02360b07f64" class="er entityLabel">Emp_phone</text></g><g transform="translate(2048.75,415.5 )" id="entity-Teacher-ed6f2787-ae2d-5cf4-94cc-4a1510120b97"><rect height="75" width="100" y="0" x="0" class="er entityBox"></rect><text transform="translate(50,37.5)" style="dominant-baseline: middle; text-anchor: middle; font-size: 12px;" y="0" x="0" id="text-entity-Teacher-ed6f2787-ae2d-5cf4-94cc-4a1510120b97" class="er entityLabel">Teacher</text></g><g transform="translate(420,415.5 )" id="entity-ITWorker-8db0448b-d6ac-51c6-8e39-098951dbae8e"><rect height="75" width="100" y="0" x="0" class="er entityBox"></rect><text transform="translate(50,37.5)" style="dominant-baseline: middle; text-anchor: middle; font-size: 12px;" y="0" x="0" id="text-entity-ITWorker-8db0448b-d6ac-51c6-8e39-098951dbae8e" class="er entityLabel">IT_Worker</text></g><g transform="translate(620,415.5 )" id="entity-CleaningStaff-c57e204b-9929-5feb-9b2a-0635aa13e70f"><rect height="75" width="113" y="0" x="0" class="er entityBox"></rect><text transform="translate(56.5,37.5)" style="dominant-baseline: middle; text-anchor: middle; font-size: 12px;" y="0" x="0" id="text-entity-CleaningStaff-c57e204b-9929-5feb-9b2a-0635aa13e70f" class="er entityLabel">Cleaning_Staff</text></g><g transform="translate(220,415.5 )" id="entity-librarian-f1fa970b-7957-561d-b41b-65d4fb6fa320"><rect height="75" width="100" y="0" x="0" class="er entityBox"></rect><text transform="translate(50,37.5)" style="dominant-baseline: middle; text-anchor: middle; font-size: 12px;" y="0" x="0" id="text-entity-librarian-f1fa970b-7957-561d-b41b-65d4fb6fa320" class="er entityLabel">librarian</text></g><g transform="translate(217,693.5 )" id="entity-libmanagers-60bf1554-5984-58a9-aeec-f36db5aecf84"><rect height="75" width="106" y="0" x="0" class="er entityBox"></rect><text transform="translate(53,37.5)" style="dominant-baseline: middle; text-anchor: middle; font-size: 12px;" y="0" x="0" id="text-entity-libmanagers-60bf1554-5984-58a9-aeec-f36db5aecf84" class="er entityLabel">lib_managers</text></g><g transform="translate(833,419 )" id="entity-Library-eea60b53-baac-5538-adff-28f2d361403a"><rect height="68" width="122" y="0" x="0" class="er entityBox"></rect><text transform="translate(61,12)" style="dominant-baseline: middle; text-anchor: middle; font-size: 12px;" y="0" x="0" id="text-entity-Library-eea60b53-baac-5538-adff-28f2d361403a" class="er entityLabel">Library</text><rect height="22" width="63" y="24" x="0" class="er attributeBoxOdd"></rect><text transform="translate(5,35)" style="dominant-baseline: middle; font-size: 10.2px;" y="0" x="0" id="text-entity-Library-eea60b53-baac-5538-adff-28f2d361403a-attr-1-type" class="er entityLabel">NUMBER</text><rect height="22" width="59" y="24" x="63" class="er attributeBoxOdd"></rect><text transform="translate(68,35)" style="dominant-baseline: middle; font-size: 10.2px;" y="0" x="0" id="text-entity-Library-eea60b53-baac-5538-adff-28f2d361403a-attr-1-name" class="er entityLabel">Lib_ID</text><rect height="22" width="63" y="46" x="0" class="er attributeBoxEven"></rect><text transform="translate(5,57)" style="dominant-baseline: middle; font-size: 10.2px;" y="0" x="0" id="text-entity-Library-eea60b53-baac-5538-adff-28f2d361403a-attr-2-type" class="er entityLabel">VARCHAR2</text><rect height="22" width="59" y="46" x="63" class="er attributeBoxEven"></rect><text transform="translate(68,57)" style="dominant-baseline: middle; font-size: 10.2px;" y="0" x="0" id="text-entity-Library-eea60b53-baac-5538-adff-28f2d361403a-attr-2-name" class="er entityLabel">Lib_Name</text></g><g transform="translate(844,693.5 )" id="entity-Books-5e2bc31f-8ec9-51cd-9d88-5a97d7861887"><rect height="75" width="100" y="0" x="0" class="er entityBox"></rect><text transform="translate(50,37.5)" style="dominant-baseline: middle; text-anchor: middle; font-size: 12px;" y="0" x="0" id="text-entity-Books-5e2bc31f-8ec9-51cd-9d88-5a97d7861887" class="er entityLabel">Books</text></g><g transform="translate(1044,693.5 )" id="entity-Members-6ca68499-3845-5453-b86b-f46456553eb4"><rect height="75" width="100" y="0" x="0" class="er entityBox"></rect><text transform="translate(50,37.5)" style="dominant-baseline: middle; text-anchor: middle; font-size: 12px;" y="0" x="0" id="text-entity-Members-6ca68499-3845-5453-b86b-f46456553eb4" class="er entityLabel">Members</text></g><g transform="translate(1381.75,364 )" id="entity-Students-03ee7170-2ee7-52ce-a732-d099e142dcbe"><rect height="178" width="140" y="0" x="0" class="er entityBox"></rect><text transform="translate(70,12)" style="dominant-baseline: middle; text-anchor: middle; font-size: 12px;" y="0" x="0" id="text-entity-Students-03ee7170-2ee7-52ce-a732-d099e142dcbe" class="er entityLabel">Students</text><rect height="22" width="63" y="24" x="0" class="er attributeBoxOdd"></rect><text transform="translate(5,35)" style="dominant-baseline: middle; font-size: 10.2px;" y="0" x="0" id="text-entity-Students-03ee7170-2ee7-52ce-a732-d099e142dcbe-attr-1-type" class="er entityLabel">NUMBER</text><rect height="22" width="77" y="24" x="63" class="er attributeBoxOdd"></rect><text transform="translate(68,35)" style="dominant-baseline: middle; font-size: 10.2px;" y="0" x="0" id="text-entity-Students-03ee7170-2ee7-52ce-a732-d099e142dcbe-attr-1-name" class="er entityLabel">Stud_SSN</text><rect height="22" width="63" y="46" x="0" class="er attributeBoxEven"></rect><text transform="translate(5,57)" style="dominant-baseline: middle; font-size: 10.2px;" y="0" x="0" id="text-entity-Students-03ee7170-2ee7-52ce-a732-d099e142dcbe-attr-2-type" class="er entityLabel">VARCHAR2</text><rect height="22" width="77" y="46" x="63" class="er attributeBoxEven"></rect><text transform="translate(68,57)" style="dominant-baseline: middle; font-size: 10.2px;" y="0" x="0" id="text-entity-Students-03ee7170-2ee7-52ce-a732-d099e142dcbe-attr-2-name" class="er entityLabel">Fname</text><rect height="22" width="63" y="68" x="0" class="er attributeBoxOdd"></rect><text transform="translate(5,79)" style="dominant-baseline: middle; font-size: 10.2px;" y="0" x="0" id="text-entity-Students-03ee7170-2ee7-52ce-a732-d099e142dcbe-attr-3-type" class="er entityLabel">VARCHAR2</text><rect height="22" width="77" y="68" x="63" class="er attributeBoxOdd"></rect><text transform="translate(68,79)" style="dominant-baseline: middle; font-size: 10.2px;" y="0" x="0" id="text-entity-Students-03ee7170-2ee7-52ce-a732-d099e142dcbe-attr-3-name" class="er entityLabel">Minit</text><rect height="22" width="63" y="90" x="0" class="er attributeBoxEven"></rect><text transform="translate(5,101)" style="dominant-baseline: middle; font-size: 10.2px;" y="0" x="0" id="text-entity-Students-03ee7170-2ee7-52ce-a732-d099e142dcbe-attr-4-type" class="er entityLabel">VARCHAR2</text><rect height="22" width="77" y="90" x="63" class="er attributeBoxEven"></rect><text transform="translate(68,101)" style="dominant-baseline: middle; font-size: 10.2px;" y="0" x="0" id="text-entity-Students-03ee7170-2ee7-52ce-a732-d099e142dcbe-attr-4-name" class="er entityLabel">Lname</text><rect height="22" width="63" y="112" x="0" class="er attributeBoxOdd"></rect><text transform="translate(5,123)" style="dominant-baseline: middle; font-size: 10.2px;" y="0" x="0" id="text-entity-Students-03ee7170-2ee7-52ce-a732-d099e142dcbe-attr-5-type" class="er entityLabel">DATE</text><rect height="22" width="77" y="112" x="63" class="er attributeBoxOdd"></rect><text transform="translate(68,123)" style="dominant-baseline: middle; font-size: 10.2px;" y="0" x="0" id="text-entity-Students-03ee7170-2ee7-52ce-a732-d099e142dcbe-attr-5-name" class="er entityLabel">Bdata</text><rect height="22" width="63" y="134" x="0" class="er attributeBoxEven"></rect><text transform="translate(5,145)" style="dominant-baseline: middle; font-size: 10.2px;" y="0" x="0" id="text-entity-Students-03ee7170-2ee7-52ce-a732-d099e142dcbe-attr-6-type" class="er entityLabel">VARCHAR2</text><rect height="22" width="77" y="134" x="63" class="er attributeBoxEven"></rect><text transform="translate(68,145)" style="dominant-baseline: middle; font-size: 10.2px;" y="0" x="0" id="text-entity-Students-03ee7170-2ee7-52ce-a732-d099e142dcbe-attr-6-name" class="er entityLabel">Stud_Address</text><rect height="22" width="63" y="156" x="0" class="er attributeBoxOdd"></rect><text transform="translate(5,167)" style="dominant-baseline: middle; font-size: 10.2px;" y="0" x="0" id="text-entity-Students-03ee7170-2ee7-52ce-a732-d099e142dcbe-attr-7-type" class="er entityLabel">VARCHAR2</text><rect height="22" width="77" y="156" x="63" class="er attributeBoxOdd"></rect><text transform="translate(68,167)" style="dominant-baseline: middle; font-size: 10.2px;" y="0" x="0" id="text-entity-Students-03ee7170-2ee7-52ce-a732-d099e142dcbe-attr-7-name" class="er entityLabel">Email</text></g><g transform="translate(1244,693.5 )" id="entity-Enrollment-031038f6-86d8-54a9-b02b-7a29c0fc1da1"><rect height="75" width="100" y="0" x="0" class="er entityBox"></rect><text transform="translate(50,37.5)" style="dominant-baseline: middle; text-anchor: middle; font-size: 12px;" y="0" x="0" id="text-entity-Enrollment-031038f6-86d8-54a9-b02b-7a29c0fc1da1" class="er entityLabel">Enrollment</text></g><g transform="translate(1667.75,408 )" id="entity-courses-e886fca4-b6fe-54cd-8226-7a58571a113e"><rect height="90" width="138" y="0" x="0" class="er entityBox"></rect><text transform="translate(69,12)" style="dominant-baseline: middle; text-anchor: middle; font-size: 12px;" y="0" x="0" id="text-entity-courses-e886fca4-b6fe-54cd-8226-7a58571a113e" class="er entityLabel">courses</text><rect height="22" width="63" y="24" x="0" class="er attributeBoxOdd"></rect><text transform="translate(5,35)" style="dominant-baseline: middle; font-size: 10.2px;" y="0" x="0" id="text-entity-courses-e886fca4-b6fe-54cd-8226-7a58571a113e-attr-1-type" class="er entityLabel">NUMBER</text><rect height="22" width="75" y="24" x="63" class="er attributeBoxOdd"></rect><text transform="translate(68,35)" style="dominant-baseline: middle; font-size: 10.2px;" y="0" x="0" id="text-entity-courses-e886fca4-b6fe-54cd-8226-7a58571a113e-attr-1-name" class="er entityLabel">Course_ID</text><rect height="22" width="63" y="46" x="0" class="er attributeBoxEven"></rect><text transform="translate(5,57)" style="dominant-baseline: middle; font-size: 10.2px;" y="0" x="0" id="text-entity-courses-e886fca4-b6fe-54cd-8226-7a58571a113e-attr-2-type" class="er entityLabel">VARCHAR2</text><rect height="22" width="75" y="46" x="63" class="er attributeBoxEven"></rect><text transform="translate(68,57)" style="dominant-baseline: middle; font-size: 10.2px;" y="0" x="0" id="text-entity-courses-e886fca4-b6fe-54cd-8226-7a58571a113e-attr-2-name" class="er entityLabel">Course_Name</text><rect height="22" width="63" y="68" x="0" class="er attributeBoxOdd"></rect><text transform="translate(5,79)" style="dominant-baseline: middle; font-size: 10.2px;" y="0" x="0" id="text-entity-courses-e886fca4-b6fe-54cd-8226-7a58571a113e-attr-3-type" class="er entityLabel">VARCHAR2</text><rect height="22" width="75" y="68" x="63" class="er attributeBoxOdd"></rect><text transform="translate(68,79)" style="dominant-baseline: middle; font-size: 10.2px;" y="0" x="0" id="text-entity-courses-e886fca4-b6fe-54cd-8226-7a58571a113e-attr-3-name" class="er entityLabel">Prerequisite</text></g><g transform="translate(1444,642 )" id="entity-Grades-95ca7064-912c-5de7-825d-b6ca31cd2795"><rect height="178" width="131" y="0" x="0" class="er entityBox"></rect><text transform="translate(65.5,12)" style="dominant-baseline: middle; text-anchor: middle; font-size: 12px;" y="0" x="0" id="text-entity-Grades-95ca7064-912c-5de7-825d-b6ca31cd2795" class="er entityLabel">Grades</text><rect height="22" width="63" y="24" x="0" class="er attributeBoxOdd"></rect><text transform="translate(5,35)" style="dominant-baseline: middle; font-size: 10.2px;" y="0" x="0" id="text-entity-Grades-95ca7064-912c-5de7-825d-b6ca31cd2795-attr-1-type" class="er entityLabel">NUMBER</text><rect height="22" width="68" y="24" x="63" class="er attributeBoxOdd"></rect><text transform="translate(68,35)" style="dominant-baseline: middle; font-size: 10.2px;" y="0" x="0" id="text-entity-Grades-95ca7064-912c-5de7-825d-b6ca31cd2795-attr-1-name" class="er entityLabel">Stud_SSN</text><rect height="22" width="63" y="46" x="0" class="er attributeBoxEven"></rect><text transform="translate(5,57)" style="dominant-baseline: middle; font-size: 10.2px;" y="0" x="0" id="text-entity-Grades-95ca7064-912c-5de7-825d-b6ca31cd2795-attr-2-type" class="er entityLabel">NUMBER</text><rect height="22" width="68" y="46" x="63" class="er attributeBoxEven"></rect><text transform="translate(68,57)" style="dominant-baseline: middle; font-size: 10.2px;" y="0" x="0" id="text-entity-Grades-95ca7064-912c-5de7-825d-b6ca31cd2795-attr-2-name" class="er entityLabel">Course_ID</text><rect height="22" width="63" y="68" x="0" class="er attributeBoxOdd"></rect><text transform="translate(5,79)" style="dominant-baseline: middle; font-size: 10.2px;" y="0" x="0" id="text-entity-Grades-95ca7064-912c-5de7-825d-b6ca31cd2795-attr-3-type" class="er entityLabel">VARCHAR2</text><rect height="22" width="68" y="68" x="63" class="er attributeBoxOdd"></rect><text transform="translate(68,79)" style="dominant-baseline: middle; font-size: 10.2px;" y="0" x="0" id="text-entity-Grades-95ca7064-912c-5de7-825d-b6ca31cd2795-attr-3-name" class="er entityLabel">Quarter</text><rect height="22" width="63" y="90" x="0" class="er attributeBoxEven"></rect><text transform="translate(5,101)" style="dominant-baseline: middle; font-size: 10.2px;" y="0" x="0" id="text-entity-Grades-95ca7064-912c-5de7-825d-b6ca31cd2795-attr-4-type" class="er entityLabel">NUMBER</text><rect height="22" width="68" y="90" x="63" class="er attributeBoxEven"></rect><text transform="translate(68,101)" style="dominant-baseline: middle; font-size: 10.2px;" y="0" x="0" id="text-entity-Grades-95ca7064-912c-5de7-825d-b6ca31cd2795-attr-4-name" class="er entityLabel">Behavior</text><rect height="22" width="63" y="112" x="0" class="er attributeBoxOdd"></rect><text transform="translate(5,123)" style="dominant-baseline: middle; font-size: 10.2px;" y="0" x="0" id="text-entity-Grades-95ca7064-912c-5de7-825d-b6ca31cd2795-attr-5-type" class="er entityLabel">NUMBER</text><rect height="22" width="68" y="112" x="63" class="er attributeBoxOdd"></rect><text transform="translate(68,123)" style="dominant-baseline: middle; font-size: 10.2px;" y="0" x="0" id="text-entity-Grades-95ca7064-912c-5de7-825d-b6ca31cd2795-attr-5-name" class="er entityLabel">Attendance</text><rect height="22" width="63" y="134" x="0" class="er attributeBoxEven"></rect><text transform="translate(5,145)" style="dominant-baseline: middle; font-size: 10.2px;" y="0" x="0" id="text-entity-Grades-95ca7064-912c-5de7-825d-b6ca31cd2795-attr-6-type" class="er entityLabel">NUMBER</text><rect height="22" width="68" y="134" x="63" class="er attributeBoxEven"></rect><text transform="translate(68,145)" style="dominant-baseline: middle; font-size: 10.2px;" y="0" x="0" id="text-entity-Grades-95ca7064-912c-5de7-825d-b6ca31cd2795-attr-6-name" class="er entityLabel">Year_Works</text><rect height="22" width="63" y="156" x="0" class="er attributeBoxOdd"></rect><text transform="translate(5,167)" style="dominant-baseline: middle; font-size: 10.2px;" y="0" x="0" id="text-entity-Grades-95ca7064-912c-5de7-825d-b6ca31cd2795-attr-7-type" class="er entityLabel">NUMBER</text><rect height="22" width="68" y="156" x="63" class="er attributeBoxOdd"></rect><text transform="translate(68,167)" style="dominant-baseline: middle; font-size: 10.2px;" y="0" x="0" id="text-entity-Grades-95ca7064-912c-5de7-825d-b6ca31cd2795-attr-7-name" class="er entityLabel">final_mark</text></g><g transform="translate(1736.75,693.5 )" id="entity-Exams-05783122-e566-595d-8c9e-14fbb0442c1b"><rect height="75" width="100" y="0" x="0" class="er entityBox"></rect><text transform="translate(50,37.5)" style="dominant-baseline: middle; text-anchor: middle; font-size: 12px;" y="0" x="0" id="text-entity-Exams-05783122-e566-595d-8c9e-14fbb0442c1b" class="er entityLabel">Exams</text></g><g transform="translate(1936.75,693.5 )" id="entity-LegalGuardian-9dbaa4aa-aaf2-5585-a844-9e5e97a83ec1"><rect height="75" width="119" y="0" x="0" class="er entityBox"></rect><text transform="translate(59.5,37.5)" style="dominant-baseline: middle; text-anchor: middle; font-size: 12px;" y="0" x="0" id="text-entity-LegalGuardian-9dbaa4aa-aaf2-5585-a844-9e5e97a83ec1" class="er entityLabel">Legal_Guardian</text></g><g transform="translate(1946.25,920 )" id="entity-LGInfo-d25cdbe5-93a9-5ea4-8732-081ed2112362"><rect height="75" width="100" y="0" x="0" class="er entityBox"></rect><text transform="translate(50,37.5)" style="dominant-baseline: middle; text-anchor: middle; font-size: 12px;" y="0" x="0" id="text-entity-LGInfo-d25cdbe5-93a9-5ea4-8732-081ed2112362" class="er entityLabel">LG_Info</text></g><g transform="translate(1946.25,1095 )" id="entity-LGPhones-2a4d13fc-5efb-5e65-9fba-9122f07ac6e1"><rect height="75" width="100" y="0" x="0" class="er entityBox"></rect><text transform="translate(50,37.5)" style="dominant-baseline: middle; text-anchor: middle; font-size: 12px;" y="0" x="0" id="text-entity-LGPhones-2a4d13fc-5efb-5e65-9fba-9122f07ac6e1" class="er entityLabel">LG_Phones</text></g><g transform="translate(2203.25,693.5 )" id="entity-Class-72a8fe3b-dda1-500b-81e8-fe5cfcc9ca17"><rect height="75" width="100" y="0" x="0" class="er entityBox"></rect><text transform="translate(50,37.5)" style="dominant-baseline: middle; text-anchor: middle; font-size: 12px;" y="0" x="0" id="text-entity-Class-72a8fe3b-dda1-500b-81e8-fe5cfcc9ca17" class="er entityLabel">Class</text></g><g transform="translate(2248.75,408 )" id="entity-Rooms-5faa8da7-a7db-566f-8faf-cca995634b18"><rect height="90" width="109" y="0" x="0" class="er entityBox"></rect><text transform="translate(54.5,12)" style="dominant-baseline: middle; text-anchor: middle; font-size: 12px;" y="0" x="0" id="text-entity-Rooms-5faa8da7-a7db-566f-8faf-cca995634b18" class="er entityLabel">Rooms</text><rect height="22" width="53" y="24" x="0" class="er attributeBoxOdd"></rect><text transform="translate(5,35)" style="dominant-baseline: middle; font-size: 10.2px;" y="0" x="0" id="text-entity-Rooms-5faa8da7-a7db-566f-8faf-cca995634b18-attr-1-type" class="er entityLabel">NUMBER</text><rect height="22" width="56" y="24" x="53" class="er attributeBoxOdd"></rect><text transform="translate(58,35)" style="dominant-baseline: middle; font-size: 10.2px;" y="0" x="0" id="text-entity-Rooms-5faa8da7-a7db-566f-8faf-cca995634b18-attr-1-name" class="er entityLabel">Room_No</text><rect height="22" width="53" y="46" x="0" class="er attributeBoxEven"></rect><text transform="translate(5,57)" style="dominant-baseline: middle; font-size: 10.2px;" y="0" x="0" id="text-entity-Rooms-5faa8da7-a7db-566f-8faf-cca995634b18-attr-2-type" class="er entityLabel">NUMBER</text><rect height="22" width="56" y="46" x="53" class="er attributeBoxEven"></rect><text transform="translate(58,57)" style="dominant-baseline: middle; font-size: 10.2px;" y="0" x="0" id="text-entity-Rooms-5faa8da7-a7db-566f-8faf-cca995634b18-attr-2-name" class="er entityLabel">Floor_No</text><rect height="22" width="53" y="68" x="0" class="er attributeBoxOdd"></rect><text transform="translate(5,79)" style="dominant-baseline: middle; font-size: 10.2px;" y="0" x="0" id="text-entity-Rooms-5faa8da7-a7db-566f-8faf-cca995634b18-attr-3-type" class="er entityLabel">NUMBER</text><rect height="22" width="56" y="68" x="53" class="er attributeBoxOdd"></rect><text transform="translate(58,79)" style="dominant-baseline: middle; font-size: 10.2px;" y="0" x="0" id="text-entity-Rooms-5faa8da7-a7db-566f-8faf-cca995634b18-attr-3-name" class="er entityLabel">Capacity</text></g><rect height="14" width="24" y="252.28961181640625" x="195.10704040527344" class="er relationshipLabelBox"></rect><text style="text-anchor: middle; dominant-baseline: middle; font-size: 12px;" y="259.28961181640625" x="207.10704040527344" id="rel1" class="er relationshipLabel">has</text><rect height="14" width="26" y="228.86328125" x="1323.4461669921875" class="er relationshipLabelBox"></rect><text style="text-anchor: middle; dominant-baseline: middle; font-size: 12px;" y="235.86328125" x="1336.4461669921875" id="rel2" class="er relationshipLabel">is_a</text><rect height="14" width="26" y="332.75" x="457" class="er relationshipLabelBox"></rect><text style="text-anchor: middle; dominant-baseline: middle; font-size: 12px;" y="339.75" x="470" id="rel3" class="er relationshipLabel">is_a</text><rect height="14" width="26" y="279.1526794433594" x="620.254638671875" class="er relationshipLabelBox"></rect><text style="text-anchor: middle; dominant-baseline: middle; font-size: 12px;" y="286.1526794433594" x="633.254638671875" id="rel4" class="er relationshipLabel">is_a</text><rect height="14" width="26" y="280.71246337890625" x="297.4264831542969" class="er relationshipLabelBox"></rect><text style="text-anchor: middle; dominant-baseline: middle; font-size: 12px;" y="287.71246337890625" x="310.4264831542969" id="rel5" class="er relationshipLabel">is_a</text><rect height="14" width="52" y="585" x="244" class="er relationshipLabelBox"></rect><text style="text-anchor: middle; dominant-baseline: middle; font-size: 12px;" y="592" x="270" id="rel6" class="er relationshipLabel">manages</text><rect height="14" width="73" y="586.7821655273438" x="541.5000610351562" class="er relationshipLabelBox"></rect><text style="text-anchor: middle; dominant-baseline: middle; font-size: 12px;" y="593.7821655273438" x="578.0000610351562" id="rel7" class="er relationshipLabel">managed_by</text><rect height="14" width="53" y="583.25" x="867.5" class="er relationshipLabelBox"></rect><text style="text-anchor: middle; dominant-baseline: middle; font-size: 12px;" y="590.25" x="894" id="rel8" class="er relationshipLabel">contains</text><rect height="14" width="24" y="571.9817504882812" x="1009.6712646484375" class="er relationshipLabelBox"></rect><text style="text-anchor: middle; dominant-baseline: middle; font-size: 12px;" y="578.9817504882812" x="1021.6712646484375" id="rel9" class="er relationshipLabel">has</text><rect height="14" width="26" y="555.577392578125" x="1208.14990234375" class="er relationshipLabelBox"></rect><text style="text-anchor: middle; dominant-baseline: middle; font-size: 12px;" y="562.577392578125" x="1221.14990234375" id="rel10" class="er relationshipLabel">is_a</text><rect height="14" width="43" y="569.6177368164062" x="1262.9619140625" class="er relationshipLabelBox"></rect><text style="text-anchor: middle; dominant-baseline: middle; font-size: 12px;" y="576.6177368164062" x="1284.4619140625" id="rel11" class="er relationshipLabel">enrolls</text><rect height="14" width="24" y="548.2096557617188" x="1454.046142578125" class="er relationshipLabelBox"></rect><text style="text-anchor: middle; dominant-baseline: middle; font-size: 12px;" y="555.2096557617188" x="1466.046142578125" id="rel12" class="er relationshipLabel">has</text><rect height="14" width="52" y="586.3585815429688" x="1429.501953125" class="er relationshipLabelBox"></rect><text style="text-anchor: middle; dominant-baseline: middle; font-size: 12px;" y="593.3585815429688" x="1455.501953125" id="rel13" class="er relationshipLabel">receives</text><rect height="14" width="24" y="570.4252319335938" x="1627.6890869140625" class="er relationshipLabelBox"></rect><text style="text-anchor: middle; dominant-baseline: middle; font-size: 12px;" y="577.4252319335938" x="1639.6890869140625" id="rel14" class="er relationshipLabel">has</text><rect height="14" width="35" y="560.354248046875" x="1650.50927734375" class="er relationshipLabelBox"></rect><text style="text-anchor: middle; dominant-baseline: middle; font-size: 12px;" y="567.354248046875" x="1668.00927734375" id="rel15" class="er relationshipLabel">takes</text><rect height="14" width="24" y="583.3091430664062" x="1810.5157470703125" class="er relationshipLabelBox"></rect><text style="text-anchor: middle; dominant-baseline: middle; font-size: 12px;" y="590.3091430664062" x="1822.5157470703125" id="rel16" class="er relationshipLabel">has</text><rect height="14" width="24" y="535.7891235351562" x="1778.0396728515625" class="er relationshipLabelBox"></rect><text style="text-anchor: middle; dominant-baseline: middle; font-size: 12px;" y="542.7891235351562" x="1790.0396728515625" id="rel17" class="er relationshipLabel">has</text><rect height="14" width="42" y="837.25" x="1975.25" class="er relationshipLabelBox"></rect><text style="text-anchor: middle; dominant-baseline: middle; font-size: 12px;" y="844.25" x="1996.25" id="rel18" class="er relationshipLabel">details</text><rect height="14" width="24" y="1038" x="1984.25" class="er relationshipLabelBox"></rect><text style="text-anchor: middle; dominant-baseline: middle; font-size: 12px;" y="1045" x="1996.25" id="rel19" class="er relationshipLabel">has</text><rect height="14" width="50" y="599.5353393554688" x="2101.712158203125" class="er relationshipLabelBox"></rect><text style="text-anchor: middle; dominant-baseline: middle; font-size: 12px;" y="606.5353393554688" x="2126.712158203125" id="rel20" class="er relationshipLabel">teaches</text><rect height="14" width="58" y="542.3822631835938" x="2016.6297607421875" class="er relationshipLabelBox"></rect><text style="text-anchor: middle; dominant-baseline: middle; font-size: 12px;" y="549.3822631835938" x="2045.6297607421875" id="rel21" class="er relationshipLabel">taught_in</text><rect height="14" width="35" y="590.8070678710938" x="2278.77685546875" class="er relationshipLabelBox"></rect><text style="text-anchor: middle; dominant-baseline: middle; font-size: 12px;" y="597.8070678710938" x="2296.27685546875" id="rel22" class="er relationshipLabel">hosts</text></g><g id="svg-pan-zoom-controls" transform="translate(1046 717) scale(0.75)" class="svg-pan-zoom-control"><g id="svg-pan-zoom-zoom-in" transform="translate(30.5 5) scale(0.015)" class="svg-pan-zoom-control"><rect x="0" y="0" width="1500" height="1400" class="svg-pan-zoom-control-background"></rect><path d="M1280 576v128q0 26 -19 45t-45 19h-320v320q0 26 -19 45t-45 19h-128q-26 0 -45 -19t-19 -45v-320h-320q-26 0 -45 -19t-19 -45v-128q0 -26 19 -45t45 -19h320v-320q0 -26 19 -45t45 -19h128q26 0 45 19t19 45v320h320q26 0 45 19t19 45zM1536 1120v-960 q0 -119 -84.5 -203.5t-203.5 -84.5h-960q-119 0 -203.5 84.5t-84.5 203.5v960q0 119 84.5 203.5t203.5 84.5h960q119 0 203.5 -84.5t84.5 -203.5z" class="svg-pan-zoom-control-element"></path></g><g id="svg-pan-zoom-reset-pan-zoom" transform="translate(5 35) scale(0.4)" class="svg-pan-zoom-control"><rect x="2" y="2" width="182" height="58" class="svg-pan-zoom-control-background"></rect><path d="M33.051,20.632c-0.742-0.406-1.854-0.609-3.338-0.609h-7.969v9.281h7.769c1.543,0,2.701-0.188,3.473-0.562c1.365-0.656,2.048-1.953,2.048-3.891C35.032,22.757,34.372,21.351,33.051,20.632z" class="svg-pan-zoom-control-element"></path><path d="M170.231,0.5H15.847C7.102,0.5,0.5,5.708,0.5,11.84v38.861C0.5,56.833,7.102,61.5,15.847,61.5h154.384c8.745,0,15.269-4.667,15.269-10.798V11.84C185.5,5.708,178.976,0.5,170.231,0.5z M42.837,48.569h-7.969c-0.219-0.766-0.375-1.383-0.469-1.852c-0.188-0.969-0.289-1.961-0.305-2.977l-0.047-3.211c-0.03-2.203-0.41-3.672-1.142-4.406c-0.732-0.734-2.103-1.102-4.113-1.102h-7.05v13.547h-7.055V14.022h16.524c2.361,0.047,4.178,0.344,5.45,0.891c1.272,0.547,2.351,1.352,3.234,2.414c0.731,0.875,1.31,1.844,1.737,2.906s0.64,2.273,0.64,3.633c0,1.641-0.414,3.254-1.242,4.84s-2.195,2.707-4.102,3.363c1.594,0.641,2.723,1.551,3.387,2.73s0.996,2.98,0.996,5.402v2.32c0,1.578,0.063,2.648,0.19,3.211c0.19,0.891,0.635,1.547,1.333,1.969V48.569z M75.579,48.569h-26.18V14.022h25.336v6.117H56.454v7.336h16.781v6H56.454v8.883h19.125V48.569z M104.497,46.331c-2.44,2.086-5.887,3.129-10.34,3.129c-4.548,0-8.125-1.027-10.731-3.082s-3.909-4.879-3.909-8.473h6.891c0.224,1.578,0.662,2.758,1.316,3.539c1.196,1.422,3.246,2.133,6.15,2.133c1.739,0,3.151-0.188,4.236-0.562c2.058-0.719,3.087-2.055,3.087-4.008c0-1.141-0.504-2.023-1.512-2.648c-1.008-0.609-2.607-1.148-4.796-1.617l-3.74-0.82c-3.676-0.812-6.201-1.695-7.576-2.648c-2.328-1.594-3.492-4.086-3.492-7.477c0-3.094,1.139-5.664,3.417-7.711s5.623-3.07,10.036-3.07c3.685,0,6.829,0.965,9.431,2.895c2.602,1.93,3.966,4.73,4.093,8.402h-6.938c-0.128-2.078-1.057-3.555-2.787-4.43c-1.154-0.578-2.587-0.867-4.301-0.867c-1.907,0-3.428,0.375-4.565,1.125c-1.138,0.75-1.706,1.797-1.706,3.141c0,1.234,0.561,2.156,1.682,2.766c0.721,0.406,2.25,0.883,4.589,1.43l6.063,1.43c2.657,0.625,4.648,1.461,5.975,2.508c2.059,1.625,3.089,3.977,3.089,7.055C108.157,41.624,106.937,44.245,104.497,46.331z M139.61,48.569h-26.18V14.022h25.336v6.117h-18.281v7.336h16.781v6h-16.781v8.883h19.125V48.569z M170.337,20.14h-10.336v28.43h-7.266V20.14h-10.383v-6.117h27.984V20.14z" class="svg-pan-zoom-control-element"></path></g><g id="svg-pan-zoom-zoom-out" transform="translate(30.5 70) scale(0.015)" class="svg-pan-zoom-control"><rect x="0" y="0" width="1500" height="1400" class="svg-pan-zoom-control-background"></rect><path d="M1280 576v128q0 26 -19 45t-45 19h-896q-26 0 -45 -19t-19 -45v-128q0 -26 19 -45t45 -19h896q26 0 45 19t19 45zM1536 1120v-960q0 -119 -84.5 -203.5t-203.5 -84.5h-960q-119 0 -203.5 84.5t-84.5 203.5v960q0 119 84.5 203.5t203.5 84.5h960q119 0 203.5 -84.5 t84.5 -203.5z" class="svg-pan-zoom-control-element"></path></g></g></svg>